<svg id="visual" 
    viewBox="0 0 900 600"
    width="900" 
    height="600" 
    xmlns="http://www.w3.org/2000/svg" 
    xmlns:xlink="http://www.w3.org/1999/xlink" 
    version="1.1">
    <rect x="0" y="0" width="900" height="600" fill="#48304d"></rect>
    <defs>
        <linearGradient id="grad1_0" x1="33.3%" y1="0%" x2="100%" y2="100%">
            <stop offset="20%" stop-color="#f865b0" stop-opacity="1"></stop>
            <stop offset="80%" stop-color="#f865b0" stop-opacity="1"></stop>
        </linearGradient>
    </defs>
    <defs>
        <linearGradient id="grad1_1" x1="33.3%" y1="0%" x2="100%" y2="100%">
            <stop offset="20%" stop-color="#f865b0" stop-opacity="1"></stop>
            <stop offset="80%" stop-color="#c6599d" stop-opacity="1"></stop>
        </linearGradient>
    </defs>
    <defs>
        <linearGradient id="grad1_2" x1="33.3%" y1="0%" x2="100%" y2="100%">
            <stop offset="20%" stop-color="#984d85" stop-opacity="1"></stop>
            <stop offset="80%" stop-color="#c6599d" stop-opacity="1"></stop>
        </linearGradient>
    </defs>
    <defs>
        <linearGradient id="grad1_3" x1="33.3%" y1="0%" x2="100%" y2="100%">
            <stop offset="20%" stop-color="#984d85" stop-opacity="1"></stop>
            <stop offset="80%" stop-color="#6d3f6b" stop-opacity="1"></stop>
        </linearGradient>
    </defs>
    <defs>
        <linearGradient id="grad1_4" x1="33.3%" y1="0%" x2="100%" y2="100%">
            <stop offset="20%" stop-color="#48304d" stop-opacity="1"></stop>
            <stop offset="80%" stop-color="#6d3f6b" stop-opacity="1"></stop>
        </linearGradient>
    </defs>
    <defs>
        <linearGradient id="grad2_0" x1="0%" y1="0%" x2="66.7%" y2="100%">
            <stop offset="20%" stop-color="#f865b0" stop-opacity="1"></stop>
            <stop offset="80%" stop-color="#f865b0" stop-opacity="1"></stop>
        </linearGradient>
    </defs>
    <defs>
        <linearGradient id="grad2_1" x1="0%" y1="0%" x2="66.7%" y2="100%">
            <stop offset="20%" stop-color="#c6599d" stop-opacity="1"></stop>
            <stop offset="80%" stop-color="#f865b0" stop-opacity="1"></stop>
        </linearGradient>
    </defs>
    <defs>
        <linearGradient id="grad2_2" x1="0%" y1="0%" x2="66.7%" y2="100%">
            <stop offset="20%" stop-color="#c6599d" stop-opacity="1"></stop>
            <stop offset="80%" stop-color="#984d85" stop-opacity="1"></stop>
        </linearGradient>
    </defs>
    <defs>
        <linearGradient id="grad2_3" x1="0%" y1="0%" x2="66.7%" y2="100%">
            <stop offset="20%" stop-color="#6d3f6b" stop-opacity="1"></stop>
            <stop offset="80%" stop-color="#984d85" stop-opacity="1"></stop>
        </linearGradient>
    </defs>
    <defs>
        <linearGradient id="grad2_4" x1="0%" y1="0%" x2="66.7%" y2="100%">
            <stop offset="20%" stop-color="#6d3f6b" stop-opacity="1"></stop>
            <stop offset="80%" stop-color="#48304d" stop-opacity="1"></stop>
        </linearGradient>
    </defs>
    <g transform="translate(900, 0)">
        <path d="M0 486.7C-52.2 481.6 -104.4 476.4 -147.7 454.6C-191 432.8 -225.3 394.5 -265.1 364.9C-304.9 335.2 -350.2 314.4 -385.9 280.4C-421.6 246.4 -447.7 199.3 -462.9 150.4C-478.1 101.5 -482.4 50.8 -486.7 0L0 0Z" fill="#5a385c" id='path2'></path>
        <circle r="1" fill="#f865b0">
            <animateMotion dur="60s" repeatCount="indefinite">
                <mpath   xlink:href="#path2"></mpath>
            </animateMotion>
        </circle>
        <path d="M0 389.4C-41.8 385.2 -83.6 381.1 -118.2 363.7C-152.8 346.3 -180.2 315.6 -212.1 291.9C-243.9 268.2 -280.2 251.5 -308.7 224.3C-337.3 197.1 -358.2 159.5 -370.3 120.3C-382.5 81.2 -386 40.6 -389.4 0L0 0Z" fill="#824678"></path>
        <path d="M0 292C-31.3 288.9 -62.7 285.8 -88.6 272.8C-114.6 259.7 -135.2 236.7 -159.1 218.9C-182.9 201.1 -210.1 188.6 -231.5 168.2C-253 147.8 -268.6 119.6 -277.8 90.2C-286.9 60.9 -289.5 30.5 -292 0L0 0Z" fill="#af5392" id='path3'></path>
        <circle r="1" fill="#f865b0">
            <animateMotion begin = "5s" dur="90s" repeatCount="indefinite">
                <mpath   xlink:href="#path3"></mpath>
            </animateMotion>
        </circle>
        <path d="M0 194.7C-20.9 192.6 -41.8 190.5 -59.1 181.8C-76.4 173.1 -90.1 157.8 -106 145.9C-122 134.1 -140.1 125.7 -154.4 112.1C-168.6 98.6 -179.1 79.7 -185.2 60.2C-191.3 40.6 -193 20.3 -194.7 0L0 0Z" fill="#df5fa7"></path>
        <path d="M0 97.3C-10.4 96.3 -20.9 95.3 -29.5 90.9C-38.2 86.6 -45.1 78.9 -53 73C-61 67 -70 62.9 -77.2 56.1C-84.3 49.3 -89.5 39.9 -92.6 30.1C-95.6 20.3 -96.5 10.2 -97.3 0L0 0Z" fill="#f865b0"></path>
    </g>
    <g transform="translate(0, 600)">
        <path d="M0 -486.7C47.5 -467.3 95 -447.9 139.7 -429.9C184.3 -411.8 226 -395.2 271.6 -373.8C317.1 -352.3 366.4 -326.1 393.8 -286.1C421.2 -246.1 426.6 -192.4 438.4 -142.5C450.3 -92.5 468.5 -46.2 486.7 0L0 0Z" fill="#5a385c" id='path1'></path>
          <circle r="1" fill="#f865b0">
            <animateMotion begin='3s' dur="60s" repeatCount="indefinite">
                <mpath   xlink:href="#path1"></mpath>
            </animateMotion>
        </circle>
        <path d="M0 -389.4C38 -373.9 76 -358.3 111.7 -343.9C147.4 -329.5 180.8 -316.2 217.2 -299C253.7 -281.9 293.1 -260.9 315 -228.9C336.9 -196.9 341.3 -153.9 350.7 -114C360.2 -74 374.8 -37 389.4 0L0 0Z" fill="#824678"></path>
        <path d="M0 -292C28.5 -280.4 57 -268.7 83.8 -257.9C110.6 -247.1 135.6 -237.1 162.9 -224.3C190.3 -211.4 219.8 -195.6 236.3 -171.7C252.7 -147.7 256 -115.5 263.1 -85.5C270.2 -55.5 281.1 -27.7 292 0L0 0Z" fill="#af5392"></path>
        <path d="M0 -194.7C19 -186.9 38 -179.2 55.9 -172C73.7 -164.7 90.4 -158.1 108.6 -149.5C126.8 -140.9 146.6 -130.4 157.5 -114.4C168.5 -98.5 170.6 -77 175.4 -57C180.1 -37 187.4 -18.5 194.7 0L0 0Z" fill="#df5fa7"></path>
        <path d="M0 -97.3C9.5 -93.5 19 -89.6 27.9 -86C36.9 -82.4 45.2 -79 54.3 -74.8C63.4 -70.5 73.3 -65.2 78.8 -57.2C84.2 -49.2 85.3 -38.5 87.7 -28.5C90.1 -18.5 93.7 -9.2 97.3 0L0 0Z" fill="#f865b0"></path>
        <circle r="1" fill="#f865b0">
            <animateMotion begin='0s' dur="30s" repeatCount="indefinite">
                <mpath   xlink:href="#path1"></mpath>
            </animateMotion>
        </circle>
    </g>

  </svg>

